<svg width="382" height="369" xmlns="http://www.w3.org/2000/svg"><g fill="none" fill-rule="evenodd"><path fill="#D0D7DC" d="M85.161 291.163l1.526-1.525-9.397-9.397-1.525 1.526z"/><path fill="#ECEFF1" d="M85 251.74H60v-9.046h25zm151.015-21.035h2.158V56.993H200.95v70.132h2.158V59.151h32.908z"/><path fill="#ECEFF1" d="M237 170.694h-18v60h18zm-133-40H86v76h18z"/><path fill="#ECEFF1" d="M104 175.694h-7v76h7zm-20.117 31.214h2.158V131.32h18.882v-2.158h-21.04z"/><path fill="#ECEFF1" d="M100 241.694H85v10h15z"/><path fill="#D0D7DC" d="M86.21 290.401h-2.16v-12.426h2.158z"/><path fill="#D0D7DC" d="M85.207 291.163l9.397-9.396-1.526-1.526-9.396 9.397zm178.659 25.384h2.158V196.423h45.114v120.124h2.158V194.265h-49.43zM138.1 301.7c-.11-.027-.211-.075-.315-.117v14.964h2.158v-14.48a17.468 17.468 0 0 1-1.844-.367z"/><path fill="#ECEFF1" d="M230 226.694h-11v11h11z"/><path fill="#D0D7DC" d="M264.338 238.188H220.91v-2.158h43.428zm0 7.688H220.91v-2.158h43.428z"/><path fill="#D0D7DC" d="M227.923 237.11h2.158v-6.115h14.026v5.62h2.158v-7.778h-18.342zm-42.483 79.437h2.158v-33.493h18.154v33.274h2.158v-35.431h-22.47zm69.66-52.565h-7.419v-8.632h7.418v8.632zm2.157 2.158h-11.733v-12.948h11.733v12.948zm-51.525-103.456h-53.763v-8.83h53.763v8.83zm2.159 2.158h-58.078v-13.145h58.078v13.145zm-2.159 18.992h-53.763v-8.83h53.763v8.83zm2.159 2.158h-58.078v-13.145h58.078v13.145zm-2.159 18.99h-53.763v-8.829h53.763v8.83zm2.159 2.158h-58.078v-13.145h58.078v13.145zm-2.159 18.99h-53.763v-8.828h53.763v8.828zm2.159 2.158h-58.078v-13.144h58.078v13.144zm-2.159 18.992h-53.763v-8.83h53.763v8.83zm2.159 2.157h-58.078v-13.144h58.078v13.144zM168.4 268.428h37.331V259.6h-43.866a39.479 39.479 0 0 0-2.622-2.158h48.646v13.145h-38.756a18.26 18.26 0 0 0-.733-2.158m132.588-48.047h-7.417v-14.09h7.417v14.09zm2.158 2.158h-11.733v-18.407h11.733v18.407zm-19.556-2.158h-7.418v-14.09h7.418v14.09zm2.158 2.158h-11.734v-18.407h11.734v18.407zm15.24 23.737h-7.417v-14.091h7.417v14.091zm2.158 2.158h-11.733v-18.407h11.733v18.407zm-2.158 23.842h-7.417v-14.091h7.417v14.091zm2.158 2.158h-11.733v-18.407h11.733v18.407zm-19.556-28.158h-7.418v-14.091h7.418v14.091zm2.158 2.158h-11.734v-18.407h11.734v18.407zm-2.158 24.077h-7.418V258.42h7.418v14.092zm2.158 2.158h-11.734v-18.408h11.734v18.408zm-48.047-10.688h-7.418v-8.632h7.418v8.632zm2.158 2.158h-11.734v-12.948h11.734v12.948zm15.241 17.162h-7.419v-8.632h7.418v8.632zm2.157 2.157h-11.733v-12.947h11.733v12.947zm-19.556-2.157h-7.418v-8.632h7.418v8.632zm2.158 2.157h-11.734v-12.947h11.734v12.947zm-11.734 31.088h2.158V297.87H255.1v18.477h2.158V295.71h-29.132zm45.89 0h2.158V288.09h24.816v28.155h2.158v-30.313h-29.132z"/><path fill="#D0D7DC" d="M255.572 305.623h-25.76v-2.158h25.76zM145.698 317.2h-2.158v-41.204h2.158zm-59.343-64.784h-2.158v-9.66h2.158zm23.558 64.13h-2.158v-49.932h2.158zm-90.363 0h-2.158v-49.932h2.158zm22.119-64.13H39.51v-9.66h2.158zm19 0H58.51v-9.66h2.158zm-25.204 34.229h-2.158v-9.66h2.158zm4.99 0h-2.158v-9.66h2.158zm4.99 0h-2.158v-9.66h2.158zm4.99 0h-2.157v-9.66h2.157zm9.981 10.098h-27.29v-2.158h27.29zm35.74-5.012h-22.05v-2.157h22.05zm-40.73-5.086h-2.158v-9.66h2.158zm4.99 0h-2.158v-9.66h2.158z"/><path fill="#D0D7DC" d="M143.766 286.47l1.526-1.526-8.575-8.575-1.525 1.526zm1.615 7.56l8.576-8.574-1.526-1.526-8.575 8.575zm21.56 23.17h-2.158v-26.278h2.158zm12.989-153.437h-2.157v-10.448h2.158zm0 21.535h-2.157V174.85h2.158zm0 20.763h-2.157v-10.447h2.158zm0 20.467h-2.157V216.08h2.158zm0 21.83h-2.157v-10.447h2.158zm0 20.096h-2.157v-10.447h2.158zm109.73 48.093h-2.16v-29.536h2.158zm5.09-13.42h-2.427V300.7h2.428zm-10.08 0h-2.429V300.7h2.428zm-90.363 0h-2.428V300.7h2.428zm-112.751 3.237h-2.428v-2.427h2.428z"/><path d="M144.852 253.496c11.846 0 22.056 8.826 23.751 20.53a24.9 24.9 0 0 1 .247 3.468c0 8.39-4.27 16.034-11.423 20.443a23.994 23.994 0 0 1-12.575 3.554c-13.232 0-23.997-10.765-23.997-23.997 0-13.233 10.765-23.998 23.997-23.998m0 50.153a26.15 26.15 0 0 0 13.705-3.873c7.798-4.808 12.451-13.137 12.451-22.282a26.697 26.697 0 0 0-.27-3.775c-1.846-12.76-12.974-22.381-25.886-22.381-14.421 0-26.155 11.733-26.155 26.156 0 14.421 11.734 26.155 26.155 26.155" fill="#D0D7DC"/><path d="M155.937 300.407c.461-.334.925-.672 1.337-1.066.093-.088.164-.189.242-.286a13.178 13.178 0 0 0 7.636 2.436c7.316 0 13.27-5.953 13.27-13.27 0-5.985-3.984-11.051-9.437-12.701.055-.47.096-.94.102-1.412a2.69 2.69 0 0 0-.129-.82c6.67 1.701 11.622 7.741 11.622 14.933 0 8.508-6.92 15.428-15.428 15.428a15.33 15.33 0 0 1-9.323-3.164l.108-.078m-80.753-12.186c0 .148.02.292.027.438-.07.017-.136.019-.208.04-.64.19-1.283.338-1.93.47a11.922 11.922 0 0 1-.047-.948c0-6.675 5.43-12.105 12.105-12.105 6.674 0 12.103 5.43 12.103 12.105 0 .234-.017.465-.032.696-.717-.062-1.435-.117-2.153-.172.01-.175.027-.347.027-.524 0-5.484-4.461-9.947-9.945-9.947-5.485 0-9.947 4.463-9.947 9.947m-12.116-2.154H30.61v-8.003h32.458v8.003zm2.158 2.158H28.452v-12.319h36.774v12.319zm48.994-22.388H11.376l3.674-12.342h95.496l3.674 12.341zM8.483 267.993h108.631l-4.958-16.657H13.44l-4.957 16.657z" fill="#D0D7DC"/><path fill="#D0D7DC" d="M32.048 304.319h29.447v-16.903h-2.158v14.745H34.206v-14.745h-2.158zm65.187 11.689h-2.158V288.22h2.158zm-22.05 0h-2.158V288.22h2.158z"/><path fill="#ECEFF1" d="M328.67 331.113h-45.215v-2.158h45.215zm-64.871 12.678h-91.981v-2.158h91.98zm-161.709 0H19.55v-2.158h82.54zm49.745-12.678h-22.557v-2.158h22.557zm14.026 37.584h-57.027v-2.158h57.027zm-93.762-9.666H60.416v-2.158h11.683zm207.159 0h-9.598v-2.158h9.598zm26.198 0H285.8v-2.158h19.657z"/><path d="M343.55 264.306c10.51 0 21.019-.002 31.246-.009l-.001-2.158c-20.454.013-42.032.013-62.499 0v2.158c10.233.007 20.744.009 31.254.009m2.853-10c11.233 0 22.463-.002 33.393-.009l-.001-2.158c-21.86.013-44.92.013-66.794 0l-.001 2.158c10.937.007 22.17.009 33.403.009m-3.375 49.134c10.532 0 21.079-.104 31.789-.31l-.043-2.158c-21.39.413-42.13.413-63.4 0l-.042 2.158c10.65.206 21.165.31 31.696.31m38.242 13.581h-2.158v-8.497h2.158z" fill="#D0D7DC"/><path fill="#D0D7DC" d="M374.842 308.525h-2.158v-6.474h2.158z"/><path d="M346.298 309.915c11.56 0 23.17-.104 34.99-.311l-.037-2.158c-23.614.416-46.387.416-69.619 0l-.04 2.158c11.63.207 23.144.31 34.706.31m23.305-7.864h-2.157v-38.302h2.157zm-7.148 0h-2.158v-38.302h2.158zm-9.575 0h-2.158v-38.302h2.158zm-7.148 0h-2.158v-38.302h2.158zm-9.981 0h-2.158v-38.302h2.158zm-7.148 0h-2.158v-38.302h2.158zm-9.171 0h-2.158v-38.302h2.158zM28.126 105.999h-4.99v-6.78h4.99zm-9.509 0h-4.99v-6.78h4.99zm9.509 13.005h-4.99v-6.78h4.99zm-9.509 0h-4.99v-6.78h4.99zm9.509 13.205h-4.99v-6.78h4.99zm-9.509 0h-4.99v-6.78h4.99zm9.509 13.006h-4.99v-6.78h4.99zm-9.509 0h-4.99v-6.78h4.99zm9.509 12.288h-4.99v-6.78h4.99zm-9.509 0h-4.99v-6.78h4.99zm9.509 13.006h-4.99v-6.78h4.99zm-9.509 0h-4.99v-6.78h4.99zm9.509 13.205h-4.99v-6.78h4.99zm-9.509 0h-4.99v-6.78h4.99zm9.509 13.005h-4.99v-6.78h4.99zm-9.509 0h-4.99v-6.78h4.99zm19-90.72h-4.99v-6.78h4.99zm9.509 0h-4.99v-6.78h4.99zm-9.509 13.005h-4.99v-6.78h4.99zm9.509 0h-4.99v-6.78h4.99zm-9.509 13.205h-4.99v-6.78h4.99zm9.509 0h-4.99v-6.78h4.99zm-9.509 13.006h-4.99v-6.78h4.99zm9.509 0h-4.99v-6.78h4.99zm-9.509 12.288h-4.99v-6.78h4.99zm9.509 0h-4.99v-6.78h4.99zm-9.509 13.006h-4.99v-6.78h4.99zm9.509 0h-4.99v-6.78h4.99zm-9.509 13.205h-4.99v-6.78h4.99zm9.509 0h-4.99v-6.78h4.99zm-9.509 13.005h-4.99v-6.78h4.99zm9.509 0h-4.99v-6.78h4.99z" fill="#D0D7DC"/><path fill="#ECEFF1" d="M85.198 154.099H60.416v-2.158h24.782zm0 6.608H60.416v-2.158h24.782zm0 6.721H60.416v-2.158h24.782zm0 6.61H60.416v-2.158h24.782zm0 6.81H60.416v-2.158h24.782zm0 6.609H60.416v-2.158h24.782zm0 6.721H60.416v-2.158h24.782zm0 6.608H60.416v-2.158h24.782zM237.095 86.761H201.42v-6.78h35.674z"/><path fill="#ECEFF1" d="M237.095 86.758H201.42V84.6h35.674zm0 7.308H201.42v-2.158h35.674zm0 4.619H201.42v-2.158h35.674zm0 7.55H201.42v-2.158h35.674zm0 4.619H201.42v-2.158h35.674zm0 7.309H201.42v-2.158h35.674zm0 4.619H201.42v-2.158h35.674zm0 7.308h-12.611v-2.158h12.61zm0 5.927h-12.611v-3.466h12.61zm0 33.636h-17.87v-33.636h17.87z"/><path fill="#ECEFF1" d="M237.095 146.636h-17.87v-2.158h17.87zm0 7.551h-16.792v-2.158h16.792zm0 4.619h-16.792v-2.158h16.792zm0 7.307h-16.792v-2.158h16.792zm0 4.619h-16.792v-2.158h16.792zM237 57.694h-35v23h35zm0 29h-35v15h35z"/><path fill="#ECEFF1" d="M237 97.694h-35v11h35zm0 12h-35v11h35zm0 12h-11v11h11z"/><path fill="#ECEFF1" d="M237 121.694h-35v6h35zm-152.038 85H60v-61.047h24.962z"/><path fill="#D0D7DC" d="M.084 317.202h2.158V86.305h16.904v-6.833h22.297v6.474h17.085v119.943h2.158V83.788H43.6v-6.474H16.988v6.833H.084z"/><g fill="#D0D7DC"><path d="M103.844 251.745h2.158V26.648h65.276v100.477h2.158V24.49h-69.592z"/><path d="M139.719 25.568h-2.158V.078h2.158zm14.904 51.824h-31.964v-2.158h31.964zm-22.996-51.824h-2.158v-14.7h2.158zm15.645.001h2.158v-6.271h8.901v6.27h2.158V17.14h-13.217zm13.172 21.877h-4.203V42.44h4.203v5.007zm2.158 2.158h-8.519v-9.323h8.519v9.323zm-15.271-2.158h-4.201V42.44h4.201v5.007zm2.158 2.158h-8.517v-9.323h8.517v9.323zm-15.272-2.158h-4.201V42.44h4.201v5.007zm2.16 2.158h-8.518v-9.323h8.517v9.323zm-15.271-2.158h-4.203V42.44h4.203v5.007zm2.159 2.158h-8.518v-9.323h8.518v9.323zm37.179 14.549h-4.203v-5.008h4.203v5.008zm2.158 2.158h-8.519v-9.324h8.519v9.324zm-15.271-2.158h-4.201v-5.008h4.201v5.008zm2.158 2.158h-8.517v-9.324h8.517v9.324zm-15.272-2.158h-4.201v-5.008h4.201v5.008zm2.16 2.158h-8.518v-9.324h8.517v9.324zm-15.271-2.158h-4.203v-5.008h4.203v5.008zm2.159 2.158h-8.518v-9.324h8.518v9.324zm37.179 28.276h-4.203v-5.008h4.203v5.008zm2.158 2.158h-8.519V87.42h8.519v9.324zm-15.271-2.158h-4.201v-5.008h4.201v5.008zm2.158 2.158h-8.517V87.42h8.517v9.324zm-15.272-2.158h-4.201v-5.008h4.201v5.008zm2.16 2.158h-8.518V87.42h8.517v9.324zm-15.271-2.158h-4.203v-5.008h4.203v5.008zm2.159 2.158h-8.518V87.42h8.518v9.324zm37.179 14.549h-4.203v-5.007h4.203v5.007zm2.158 2.158h-8.519v-9.323h8.519v9.323zm-15.271-2.158h-4.201v-5.007h4.201v5.007zm2.158 2.158h-8.517v-9.323h8.517v9.323zm-15.272-2.158h-4.201v-5.007h4.201v5.007zm2.16 2.158h-8.518v-9.323h8.517v9.323zm-15.271-2.158h-4.203v-5.007h4.203v5.007zm2.159 2.158h-8.518v-9.323h8.518v9.323zm13.422 67.146H122.66v-2.158h14.028zm-2.47 17.196h-4.201v-5.008h4.201v5.008zm2.16 2.158h-8.518v-9.324h8.517v9.324zm-15.271-2.158h-4.203v-5.008h4.203v5.008zm2.159 2.158h-8.518v-9.324h8.518v9.324zm10.952 14.548h-4.201v-5.007h4.201v5.008zm2.16 2.159h-8.518v-9.323h8.517v9.323zm-15.271-2.159h-4.203v-5.007h4.203v5.008zm2.159 2.159h-8.518v-9.323h8.518v9.323zm7.013-84.246h-7.62v-2.158h7.62zm3.939 17.195h-4.201v-5.007h4.201v5.007zm2.16 2.158h-8.518v-9.323h8.517v9.323zm-15.271-2.158h-4.203v-5.007h4.203v5.007zm2.159 2.158h-8.518v-9.323h8.518v9.323zm10.952 14.55h-4.201v-5.008h4.201v5.008zm2.16 2.158h-8.518v-9.324h8.517v9.324zm-15.271-2.158h-4.203v-5.008h4.203v5.008zm2.159 2.158h-8.518v-9.324h8.518v9.324z"/></g><path fill="#ECEFF1" d="M201 57.302l18.5-14.608L238 57.302l-17 9.392z"/><path fill="#D0D7DC" d="M128.626 137.8h6.65v-2.158h-4.492v-7.507h93.228v7.507h-3.908v2.158h6.066v-11.823h-97.544z"/><path d="M136.687 252.893a10.28 10.28 0 0 0-2.245.679v-117.93h86.94v180.905h-2.244V137.8h-82.451v115.093zm-41.61-11.215H30.61V207.69h64.467v33.987zm2.158 2.158H28.452v-38.303h68.783v38.303z" fill="#D0D7DC"/><path d="M379 253.694l-5 10" stroke="#D0D7DC" stroke-width="2"/><path fill="#D0D7DC" d="M85.161 291.163l1.526-1.525-9.397-9.397-1.525 1.526z"/><path fill="#D0D7DC" d="M86.21 290.401h-2.16v-12.426h2.158z"/><path fill="#D0D7DC" d="M85.207 291.163l9.397-9.396-1.526-1.526-9.396 9.397zm178.659 25.384h2.158V196.423h45.114v120.124h2.158V194.265h-49.43z"/></g></svg>