<svg width="382" height="369" xmlns="http://www.w3.org/2000/svg"><g fill="none" fill-rule="evenodd"><path fill="#D0D7DC" d="M296.839 291.163l-1.526-1.525 9.397-9.397 1.525 1.526z"/><path fill="#ECEFF1" d="M296 251.74h27v-9.046h-27zm-150.015-21.035h-2.158V56.993h37.224v70.132h-2.158V59.151h-32.908z"/><path fill="#ECEFF1" d="M145 170.694h18v60h-18zm133-40h18v76h-18z"/><path fill="#ECEFF1" d="M278 175.694h7v76h-7zm20.117 31.214h-2.158V131.32h-18.882v-2.158h21.04z"/><path fill="#ECEFF1" d="M282 241.694h15v10h-15z"/><path fill="#D0D7DC" d="M295.79 290.401h2.159v-12.426h-2.158z"/><path fill="#D0D7DC" d="M296.793 291.163l-9.397-9.396 1.526-1.526 9.396 9.397zm-178.659 25.384h-2.158V196.423H70.862v120.124h-2.158V194.265h49.43zM243.9 301.7c.11-.027.211-.075.315-.117v14.964h-2.158v-14.48a17.468 17.468 0 0 0 1.844-.367z"/><path fill="#ECEFF1" d="M152 226.694h11v11h-11z"/><path fill="#D0D7DC" d="M117.662 238.188h43.428v-2.158h-43.428zm0 7.688h43.428v-2.158h-43.428z"/><path fill="#D0D7DC" d="M154.077 237.11h-2.158v-6.115h-14.026v5.62h-2.158v-7.778h18.342zm42.483 79.437h-2.158v-33.493h-18.154v33.274h-2.158v-35.431h22.47zm-69.66-52.565h7.419v-8.632H126.9v8.632zm-2.157 2.158h11.733v-12.948h-11.733v12.948zm51.525-103.456h53.763v-8.83h-53.763v8.83zm-2.159 2.158h58.078v-13.145H174.11v13.145zm2.159 18.992h53.763v-8.83h-53.763v8.83zm-2.159 2.158h58.078v-13.145H174.11v13.145zm2.159 18.99h53.763v-8.829h-53.763v8.83zm-2.159 2.158h58.078v-13.145H174.11v13.145zm2.159 18.99h53.763v-8.828h-53.763v8.828zm-2.159 2.158h58.078v-13.144H174.11v13.144zm2.159 18.992h53.763v-8.83h-53.763v8.83zm-2.159 2.157h58.078v-13.144H174.11v13.144zm39.491 18.991h-37.33V259.6h43.866c.844-.76 1.723-1.48 2.622-2.158h-48.646v13.145h38.756c.2-.74.446-1.459.733-2.158M81.012 220.382h7.417v-14.09h-7.417v14.09zm-2.158 2.158h11.733v-18.407H78.854v18.407zm19.556-2.158h7.418v-14.09H98.41v14.09zm-2.158 2.158h11.734v-18.407H96.252v18.407zm-15.24 23.737h7.417v-14.091h-7.417v14.091zm-2.158 2.158h11.733v-18.407H78.854v18.407zm19.556-2.158h7.418v-14.091H98.41v14.091zm-2.158 2.158h11.734v-18.407H96.252v18.407zm2.158 24.077h7.418V258.42H98.41v14.092zm-2.158 2.158h11.734v-18.408H96.252v18.408zm-15.24-1.726h7.417v-14.092h-7.417v14.092zm-2.158 2.158h11.733v-18.408H78.854v18.408zm65.445-11.12h7.418v-8.632h-7.418v8.632zm-2.158 2.158h11.734v-12.948H142.14v12.948zM126.9 283.302h7.419v-8.632H126.9v8.632zm-2.157 2.157h11.733v-12.947h-11.733v12.947zm19.556-2.157h7.418v-8.632h-7.418v8.632zm-2.158 2.157h11.734v-12.947H142.14v12.947zm11.734 31.088h-2.158V297.87H126.9v18.477h-2.158V295.71h29.132zm-45.89 0h-2.158V288.09H81.011v28.155h-2.158v-30.313h29.132z"/><path fill="#D0D7DC" d="M126.428 305.623h25.76v-2.158h-25.76zM236.302 317.2h2.158v-41.204h-2.158zm59.343-64.784h2.158v-9.66h-2.158zm-23.558 64.13h2.158v-49.932h-2.158zm90.363 0h2.158v-49.932h-2.158zm-22.119-64.13h2.158v-9.66h-2.158zm-19 0h2.158v-9.66h-2.158zm25.204 34.229h2.158v-9.66h-2.158zm-4.99 0h2.158v-9.66h-2.158zm-4.99 0h2.158v-9.66h-2.158zm-4.99 0h2.157v-9.66h-2.157zm-9.981 10.098h27.29v-2.158h-27.29zm-35.74-5.012h22.05v-2.157h-22.05zm40.73-5.086h2.158v-9.66h-2.158zm-4.99 0h2.158v-9.66h-2.158z"/><path fill="#D0D7DC" d="M238.234 286.47l-1.526-1.526 8.575-8.575 1.525 1.526zm-1.615 7.56l-8.576-8.574 1.526-1.526 8.575 8.575zm-21.56 23.17h2.158v-26.278h-2.158zM202.07 163.763h2.157v-10.448h-2.158zm0 21.535h2.157V174.85h-2.158zm0 20.763h2.157v-10.447h-2.158zm0 20.467h2.157V216.08h-2.158zm0 21.83h2.157v-10.447h-2.158zm0 20.096h2.157v-10.447h-2.158zM92.34 316.547h2.16v-29.536h-2.16zm-5.09-13.42h2.427V300.7h-2.428zm10.08 0h2.429V300.7H97.33zm90.363 0h2.428V300.7h-2.428zm112.751 3.237h2.428v-2.427h-2.428z"/><path d="M237.148 253.496c-11.846 0-22.056 8.826-23.751 20.53a24.9 24.9 0 0 0-.247 3.468c0 8.39 4.27 16.034 11.423 20.443a23.994 23.994 0 0 0 12.575 3.554c13.232 0 23.997-10.765 23.997-23.997 0-13.233-10.765-23.998-23.997-23.998m0 50.153a26.15 26.15 0 0 1-13.705-3.873c-7.798-4.808-12.451-13.137-12.451-22.282a26.697 26.697 0 0 1 .27-3.775c1.846-12.76 12.974-22.381 25.886-22.381 14.421 0 26.155 11.733 26.155 26.156 0 14.421-11.734 26.155-26.155 26.155" fill="#D0D7DC"/><path d="M226.063 300.407c-.461-.334-.925-.672-1.337-1.066-.093-.088-.164-.189-.242-.286a13.178 13.178 0 0 1-7.636 2.436c-7.316 0-13.27-5.953-13.27-13.27 0-5.985 3.984-11.051 9.437-12.701-.055-.47-.096-.94-.102-1.412a2.69 2.69 0 0 1 .129-.82c-6.67 1.701-11.622 7.741-11.622 14.933 0 8.508 6.92 15.428 15.428 15.428a15.33 15.33 0 0 0 9.323-3.164l-.108-.078m80.753-12.186c0 .148-.02.292-.027.438.07.017.136.019.208.04.64.19 1.283.338 1.93.47.025-.313.047-.627.047-.948 0-6.675-5.43-12.105-12.105-12.105-6.674 0-12.103 5.43-12.103 12.105 0 .234.017.465.032.696.717-.062 1.435-.117 2.153-.172-.01-.175-.027-.347-.027-.524 0-5.484 4.461-9.947 9.945-9.947 5.485 0 9.947 4.463 9.947 9.947m12.116-2.154h32.458v-8.003h-32.458v8.003zm-2.158 2.158h36.774v-12.319h-36.774v12.319zm-48.994-22.388h102.844l-3.674-12.342h-95.496l-3.674 12.341zm105.737 2.157H264.886l4.958-16.657h98.716l4.957 16.657z" fill="#D0D7DC"/><path fill="#D0D7DC" d="M349.952 304.319h-29.447v-16.903h2.158v14.745h25.131v-14.745h2.158zm-65.187 11.689h2.158V288.22h-2.158zm22.05 0h2.158V288.22h-2.158z"/><path fill="#ECEFF1" d="M53.33 331.113h45.215v-2.158H53.33zm64.871 12.678h91.981v-2.158h-91.98zm161.709 0h82.54v-2.158h-82.54zm-49.745-12.678h22.557v-2.158h-22.557zm-14.026 37.584h57.027v-2.158H216.14zm93.762-9.666h11.683v-2.158h-11.683zm-207.159 0h9.598v-2.158h-9.598zm-26.198 0H96.2v-2.158H76.544z"/><path d="M38.45 264.306c-10.51 0-21.019-.002-31.246-.009l.001-2.158c20.454.013 42.032.013 62.499 0v2.158c-10.233.007-20.744.009-31.254.009m-2.853-10c-11.233 0-22.463-.002-33.393-.009l.001-2.158c21.86.013 44.92.013 66.794 0l.001 2.158c-10.937.007-22.17.009-33.403.009m3.375 49.134c-10.532 0-21.079-.104-31.789-.31l.043-2.158c21.39.413 42.13.413 63.4 0l.042 2.158c-10.65.206-21.165.31-31.696.31M.73 317.021h2.158v-8.497H.73z" fill="#D0D7DC"/><path fill="#D0D7DC" d="M7.158 308.525h2.158v-6.474H7.158z"/><path d="M.712 309.604l.037-2.158c23.614.416 46.387.416 69.619 0l.04 2.158c-11.63.207-23.144.31-34.706.31-11.56 0-23.17-.103-34.99-.31zm11.685-7.554h2.157v-38.302h-2.157zm7.148 0h2.158v-38.302h-2.158zm9.575 0h2.158v-38.302H29.12zm7.148 0h2.158v-38.302h-2.158zm9.981 0h2.158v-38.302h-2.158zm7.148 0h2.158v-38.302h-2.158zm9.171 0h2.158v-38.302h-2.158zm291.306-196.051h4.99v-6.78h-4.99zm9.509 0h4.99v-6.78h-4.99zm-9.509 13.005h4.99v-6.78h-4.99zm9.509 0h4.99v-6.78h-4.99zm-9.509 13.205h4.99v-6.78h-4.99zm9.509 0h4.99v-6.78h-4.99zm-9.509 13.006h4.99v-6.78h-4.99zm9.509 0h4.99v-6.78h-4.99zm-9.509 12.288h4.99v-6.78h-4.99zm9.509 0h4.99v-6.78h-4.99zm-9.509 13.006h4.99v-6.78h-4.99zm9.509 0h4.99v-6.78h-4.99zm-9.509 13.205h4.99v-6.78h-4.99zm9.509 0h4.99v-6.78h-4.99zm-9.509 13.005h4.99v-6.78h-4.99zm9.509 0h4.99v-6.78h-4.99zm-28.509-90.72h4.99v-6.78h-4.99zm9.509 0h4.99v-6.78h-4.99zm-9.509 13.005h4.99v-6.78h-4.99zm9.509 0h4.99v-6.78h-4.99zm-9.509 13.205h4.99v-6.78h-4.99zm9.509 0h4.99v-6.78h-4.99zm-9.509 13.006h4.99v-6.78h-4.99zm9.509 0h4.99v-6.78h-4.99zm-9.509 12.288h4.99v-6.78h-4.99zm9.509 0h4.99v-6.78h-4.99zm-9.509 13.006h4.99v-6.78h-4.99zm9.509 0h4.99v-6.78h-4.99zm-9.509 13.205h4.99v-6.78h-4.99zm9.509 0h4.99v-6.78h-4.99zm-9.509 13.005h4.99v-6.78h-4.99zm9.509 0h4.99v-6.78h-4.99z" fill="#D0D7DC"/><path fill="#ECEFF1" d="M296.802 154.099h24.782v-2.158h-24.782zm0 6.608h24.782v-2.158h-24.782zm0 6.721h24.782v-2.158h-24.782zm0 6.61h24.782v-2.158h-24.782zm0 6.81h24.782v-2.158h-24.782zm0 6.609h24.782v-2.158h-24.782zm0 6.721h24.782v-2.158h-24.782zm0 6.608h24.782v-2.158h-24.782zM144.905 86.761h35.674v-6.78h-35.674z"/><path fill="#ECEFF1" d="M144.905 86.758h35.674V84.6h-35.674zm0 7.308h35.674v-2.158h-35.674zm0 4.619h35.674v-2.158h-35.674zm0 7.55h35.674v-2.158h-35.674zm0 4.619h35.674v-2.158h-35.674zm0 7.309h35.674v-2.158h-35.674zm0 4.619h35.674v-2.158h-35.674zm0 7.308h12.611v-2.158h-12.61zm0 5.927h12.611v-3.466h-12.61zm0 33.636h17.87v-33.636h-17.87z"/><path fill="#ECEFF1" d="M144.905 146.636h17.87v-2.158h-17.87zm0 7.551h16.792v-2.158h-16.792zm0 4.619h16.792v-2.158h-16.792zm0 7.307h16.792v-2.158h-16.792zm0 4.619h16.792v-2.158h-16.792zM145 57.694h35v23h-35zm0 29h35v15h-35z"/><path fill="#ECEFF1" d="M145 97.694h35v11h-35zm0 12h35v11h-35zm0 12h11v11h-11z"/><path fill="#ECEFF1" d="M145 121.694h35v6h-35zm152.038 85h24.783v-61.047h-24.783z"/><path fill="#D0D7DC" d="M381.916 317.202h-2.158V86.305h-16.904v-6.833h-22.297v6.474h-17.085v119.943h-2.158V83.788H338.4v-6.474h26.613v6.833h16.904z"/><g fill="#D0D7DC"><path d="M278.156 251.745h-2.158V26.648h-65.276v100.477h-2.158V24.49h69.592z"/><path d="M242.281 25.568h2.158V.078h-2.158zm-14.904 51.824h31.964v-2.158h-31.964zm22.996-51.824h2.158v-14.7h-2.158zm-15.645.001h-2.158v-6.271h-8.901v6.27h-2.158V17.14h13.217zm-13.172 21.877h4.203V42.44h-4.203v5.007zm-2.158 2.158h8.519v-9.323h-8.519v9.323zm15.271-2.158h4.201V42.44h-4.201v5.007zm-2.158 2.158h8.517v-9.323h-8.517v9.323zm15.272-2.158h4.201V42.44h-4.201v5.007zm-2.16 2.158h8.518v-9.323h-8.517v9.323zm15.271-2.158h4.203V42.44h-4.203v5.007zm-2.159 2.158h8.518v-9.323h-8.518v9.323zm-37.179 14.549h4.203v-5.008h-4.203v5.008zm-2.158 2.158h8.519v-9.324h-8.519v9.324zm15.271-2.158h4.201v-5.008h-4.201v5.008zm-2.158 2.158h8.517v-9.324h-8.517v9.324zm15.272-2.158h4.201v-5.008h-4.201v5.008zm-2.16 2.158h8.518v-9.324h-8.517v9.324zm15.271-2.158h4.203v-5.008h-4.203v5.008zm-2.159 2.158h8.518v-9.324h-8.518v9.324zm-37.179 28.276h4.203v-5.008h-4.203v5.008zm-2.158 2.158h8.519V87.42h-8.519v9.324zm15.271-2.158h4.201v-5.008h-4.201v5.008zm-2.158 2.158h8.517V87.42h-8.517v9.324zm15.272-2.158h4.201v-5.008h-4.201v5.008zm-2.16 2.158h8.518V87.42h-8.517v9.324zm15.271-2.158h4.203v-5.008h-4.203v5.008zm-2.159 2.158h8.518V87.42h-8.518v9.324zm-37.179 14.549h4.203v-5.007h-4.203v5.007zm-2.158 2.158h8.519v-9.323h-8.519v9.323zm15.271-2.158h4.201v-5.007h-4.201v5.007zm-2.158 2.158h8.517v-9.323h-8.517v9.323zm15.272-2.158h4.201v-5.007h-4.201v5.007zm-2.16 2.158h8.518v-9.323h-8.517v9.323zm15.271-2.158h4.203v-5.007h-4.203v5.007zm-2.159 2.158h8.518v-9.323h-8.518v9.323zm-13.422 67.146h14.028v-2.158h-14.028zm2.47 17.196h4.201v-5.008h-4.201v5.008zm-2.16 2.158h8.518v-9.324h-8.517v9.324zm15.271-2.158h4.203v-5.008h-4.203v5.008zm-2.159 2.158h8.518v-9.324h-8.518v9.324zM247.783 214.5h4.201v-5.007h-4.201v5.008zm-2.16 2.159h8.518v-9.323h-8.517v9.323zm15.271-2.159h4.203v-5.007h-4.203v5.008zm-2.159 2.159h8.518v-9.323h-8.518v9.323zm-7.013-84.246h7.62v-2.158h-7.62zm-3.939 17.195h4.201v-5.007h-4.201v5.007zm-2.16 2.158h8.518v-9.323h-8.517v9.323zm15.271-2.158h4.203v-5.007h-4.203v5.007zm-2.159 2.158h8.518v-9.323h-8.518v9.323zm-10.952 14.55h4.201v-5.008h-4.201v5.008zm-2.16 2.158h8.518v-9.324h-8.517v9.324zm15.271-2.158h4.203v-5.008h-4.203v5.008zm-2.159 2.158h8.518v-9.324h-8.518v9.324z"/></g><path fill="#ECEFF1" d="M181 57.302l-18.5-14.608L144 57.302l17 9.392z"/><path fill="#D0D7DC" d="M253.374 137.8h-6.65v-2.158h4.492v-7.507h-93.228v7.507h3.908v2.158h-6.066v-11.823h97.544z"/><path d="M245.313 252.893c.78.144 1.531.368 2.245.679v-117.93h-86.94v180.905h2.244V137.8h82.451v115.093zm41.61-11.215h64.467V207.69h-64.467v33.987zm-2.158 2.158h68.783v-38.303h-68.783v38.303z" fill="#D0D7DC"/><path d="M3 253.694l5 10" stroke="#D0D7DC" stroke-width="2"/><path fill="#D0D7DC" d="M296.839 291.163l-1.526-1.525 9.397-9.397 1.525 1.526z"/><path fill="#D0D7DC" d="M295.79 290.401h2.159v-12.426h-2.158z"/><path fill="#D0D7DC" d="M296.793 291.163l-9.397-9.396 1.526-1.526 9.396 9.397zm-178.659 25.384h-2.158V196.423H70.862v120.124h-2.158V194.265h49.43z"/></g></svg>