<svg width="103" height="174" xmlns="http://www.w3.org/2000/svg"><g transform="matrix(-1 0 0 1 103 0)" fill="none" fill-rule="evenodd"><ellipse fill="#ECEFF1" style="mix-blend-mode:multiply" cx="55.5" cy="168" rx="47.5" ry="6"/><path fill="#FFF" d="M61.17 167.077h-.432l-.431-2.768 1.294-3.229 3.452-.461 4.746-.462 3.452.923 5.177 3.23 2.589 2.767-3.02.462-9.924-.462zm-41.823 0v-2.306l.88-2.768.882-.923 4.407-.923h3.525l5.287 2.307 3.966 2.768 1.763 1.845h-2.203l-11.457.462-5.728-.462zm23.471-107.95c1.841-1.538 3.222-2.46 4.142-2.768.92-.307 2.301-.461 4.142-.461l2.762 1.384-2.301.922-.921 2.768-.46 1.384-2.301 1.846-1.841.922-.92-2.306c-.307-1.846-.614-2.768-.921-2.768-.307 0-.767-.308-1.38-.923zm22.552-13.84l-.46-4.613 2.3-3.69 3.682-3.691h.92l1.841 3.69.46.462 1.842-2.307.92 2.307-.92 2.768-3.222 3.229-3.222 2.307H66.75z"/><path fill="#FFF" d="M77.335 35.138l9.205-12.456h-4.603l-15.647.923-13.347 22.144h5.523l7.824-.462-.46-5.074 3.221-4.152 3.222-3.23 1.38.923.46 3.23.921.922 1.841-2.307zm-40.04 96.417l-3.221-5.997-2.761-5.997-2.762-5.075-.92 1.845-1.841 15.224-4.142 29.064h1.84l5.523-.923 4.142-13.84 3.222-12.455z"/><path fill="#FFF" d="M21.188 88.652l.92-.461 6.903-.923 6.904-1.845 4.602-2.768 1.841-.923.46 5.997-.92 10.15-.46 5.997 1.84 6.458L46.5 119.1l4.142 11.072 3.682 7.381 4.602 9.688 5.063 8.766-2.762 5.074-1.38-.461-5.063-5.075-6.903-7.842-5.523-6.92-5.063-8.304-4.142-7.843-3.681-8.304-3.222-8.765-2.761-8.304-1.841-8.765z"/><path fill="#FF8731" d="M15.205 72.967l1.84 7.842 2.302 5.998.92 1.384 9.205-.923 5.983-2.307 5.983-2.768 2.3-1.845-.92-6.92-.92-5.997 4.142-1.845.92-1.384-.92-2.768-1.38-1.846-2.302-.46 4.602-2.308.92-.46-.92-1.846-4.142-5.075-10.125-11.533-2.761-4.613-3.222-1.845h-2.3l-1.842 1.845h-2.301l-2.301-.923-3.682-.922-2.761 2.306-4.142 2.307L6 37.906v19.837l.46.923 2.301 6.458 2.302 4.152 1.84 2.307 1.381 1.384z"/><path fill="#FF8731" d="M44.58 66.047l5.522.461 5.983-.461 2.301-.461 5.063-7.382 4.142-7.842 1.84-4.613h-2.3l-4.142-.462-.92 2.768-3.222 4.152-3.682 4.152-1.38.923-2.302.461-.92 1.384v2.307l-.921 1.384-1.84 1.384z"/><path d="M27.17 6.997l.92 2.307.921 3.69 1.381 1.846 2.301 1.845.46.923-.92.922-.92.462-.46 2.306v3.23l-.921 2.768-1.841.922H25.79l-2.301-.461.46 2.768.46.923c-.614.922-1.38 1.537-2.301 1.845-.92.307-1.994.307-3.222 0l-3.221-1.384-.92-.461v-5.536l2.3-2.307-.92-.923-.92-1.384.46-1.038 1.84-1.73h1.381l1.381.923.46-1.845v-4.614l-.92-1.845 2.301-1.384L25.33 7.92l1.84-.923z" fill="#FFF"/><path d="M20.727 19.453v-4.152c0-.923-.153-1.999-.46-3.23l-.46-.922 2.301-.922 4.602-3.23 3.222-2.306-3.222-2.307-4.142-.923h-5.062l-3.222.923-3.222 2.307-1.38 2.768-.46 2.768v1.383L7.38 12.994 6 14.84l.46 2.306 1.841 2.307 1.38 3.23 2.302 1.845 2.761 1.845 1.841-2.307v-1.384l-1.84-1.384 2.76-2.768 1.381.462 1.841.461z" fill="#9BABB5"/><path fill="#FFF" d="M63.068 156.467l-2.761 4.613 8.284-1.384z"/><path fill="#FF8731" d="M8.5 35l-8 3.5 4 17.5L7 59l4.5-15.5z"/><g fill="#5F686D"><path d="M79.342 166.03a43.324 43.324 0 0 0-4.188-2.884c-3.226-1.96-5.78-2.947-7.007-2.702-3.625.718-6.277.873-7.04.905-.288.258-1.18 1.332-1.13 4.719 2.469-.016 9.439-.056 14.726-.056 1.836 0 3.468.005 4.64.018zm-20.814.823c-.285-5.745 1.811-6.82 2.051-6.923l.132-.057.143-.003c.028 0 2.91-.073 7.008-.885 3.795-.75 13.019 6.05 13.846 7.228.32.454.167.821.087.958-.162.278-.464.421-.806.384-.852-.096-13.456-.05-21.72.004l-.706.005-.035-.71zm-19.731-.823a43.324 43.324 0 0 0-4.188-2.884c-3.226-1.96-5.78-2.947-7.007-2.702-3.625.718-6.276.873-7.04.905-.288.258-1.18 1.332-1.13 4.719 2.469-.016 9.439-.056 14.727-.056 1.835 0 3.467.005 4.638.018zm-20.814.823c-.285-5.745 1.811-6.82 2.051-6.923l.132-.057.143-.003c.029 0 2.91-.073 7.009-.885 3.794-.75 13.018 6.05 13.846 7.228.319.454.167.821.087.958-.163.278-.465.421-.807.384-.852-.096-13.456-.05-21.72.004l-.706.005-.035-.71zM13.424 73.11a.735.735 0 0 1-.458-.162C5.043 66.614.265 39.768.065 38.628a.744.744 0 0 1 .495-.835c.087-.029 8.868-2.999 12.717-7.568a.734.734 0 0 1 1.04-.086c.31.266.349.735.085 1.048-3.55 4.213-10.638 7.026-12.77 7.804.764 4.066 5.306 26.85 12.044 32.621 2.37-.102 19.617-1.061 31.384-7.486a.735.735 0 0 1 1 .3.747.747 0 0 1-.297 1.008c-12.909 7.047-31.531 7.653-32.318 7.675h-.02"/><path d="M29.389 34.328l5.933 13.987v4.273c0 .19.076.376.205.515.026.027 1.4 1.557 2.923 6.137h1.569c-1.383-4.326-2.714-6.285-3.222-6.926v-4.152c0-.1-.02-.2-.06-.292l-6-14.146c-1.763-3.85-6.83-3.363-7.043-3.34l.151 1.479c.043-.006 4.234-.395 5.544 2.465m12.487 32.454c-.483.118-.958.264-1.431.418.632 3.368 1.19 7.47 1.568 12.454l-2.076 1.475c-8.22 5.673-18.078 5.81-20.213 5.767-3.232-6.745-4.379-15.185-4.39-15.271l-1.462.196c.049.369 1.234 9.102 4.725 16.135a.737.737 0 0 0 .614.41c.083.005.494.028 1.167.028 3.215 0 12.407-.527 20.4-6.044l2.426-1.724a.745.745 0 0 0 .31-.662c-.385-5.293-.969-9.634-1.638-13.182"/><path d="M39.972 101.619a.993.993 0 0 1 .174.583c-.002 1.207.441 2.314.91 3.41 1.53-14.236 1.274-24.422 1.268-24.625l-1.474.044c.005.182.213 8.51-.878 20.588m-4.182 27.059c-1.92 8.488-5.148 22.315-8.775 30.592l1.35.6c3.427-7.82 6.57-21.133 8.472-29.181-.348-.675-.72-1.333-1.047-2.011m-14.024 31.795l-1.46-.208 6.766-48.292 1.46.208zM46.857 56.64L29.56 34.66l1.156-.925 17.297 21.981zm5.645 9.824c-4.072 0-8.248-.313-8.507-.333l.112-1.482c.091.007 9.03.677 13.42.076.954-.924 6.234-6.407 11.025-18.755-.9.043-2.302.058-4.21-.066L55.31 56.988l-1.14-.944 9.516-11.676.38.027c3.618.261 5.471.009 5.49.006l1.229-.173-.436 1.17c-5.512 14.772-11.74 20.36-12.003 20.59l-.162.142-.212.032c-1.476.226-3.46.302-5.47.302"/><path d="M66.17 44.394h3.25c2.464-1.805 5.9-4.746 6.173-5.929.175-.755.206-1.522.182-2.164l-1.327 1.535a.734.734 0 0 1-1.24-.21l-1.666-4.169c-2.89 1.53-5.167 6.07-5.58 6.933.01 1.31.134 3.058.208 4.004m3.489 1.486h-4.167a.74.74 0 0 1-.734-.676c-.011-.123-.272-3.037-.272-4.98 0-.106.023-.21.066-.307.124-.274 3.067-6.705 7.147-8.148a.736.736 0 0 1 .928.424l1.5 3.752 1.628-1.885a.736.736 0 0 1 1.275.321c.02.091.503 2.247 0 4.422-.508 2.193-5.871 6.164-6.942 6.938a.733.733 0 0 1-.43.14"/><path d="M86.31 21.81a.736.736 0 0 0-.677-.4l-16.939.542a.736.736 0 0 0-.57.301L51.46 45.012a.749.749 0 0 0-.056.793.737.737 0 0 0 .65.392l13.169-.667c.028-.118.054-.237.079-.357a5.26 5.26 0 0 0 .017-.216c.02-.307.021-.614.022-.921l-11.77.596L69.1 23.426l15.048-.481-8.474 11.408c.385.318.636.811.647 1.317.001.034.013.16.022.263l9.905-13.335a.749.749 0 0 0 .064-.789L43.042 35.67m-22.471-2.107c-3.043 0-6.706-1.87-6.894-1.967l-.431-.223.412-6.258 1.472.099-.348 5.27c1.682.793 5.258 2.135 7.159 1.372a1.83 1.83 0 0 0 1.03-.983l-.92-4.133 1.44-.325 1.015 4.565-.07.201c-.344.983-1 1.675-1.95 2.056-.575.232-1.23.326-1.915.326"/><path d="M33.539 16.824a.745.745 0 0 0-.295-.497c-1.007-.742-3.768-3.107-4.445-5.1a26.198 26.198 0 0 1-.608-2.164c-.287-1.154-.548-2.197-1.135-3.14-.377.324-.781.608-1.192.885.426.725.637 1.572.897 2.617.169.68.36 1.45.642 2.282.72 2.12 3.043 4.25 4.243 5.245-.444.307-1.05.665-1.574.938a.744.744 0 0 0-.398.69c.014.37.034.727.054 1.077.132 2.35.237 4.207-1.67 6.864-.793 1.104-3.708.31-4.996-.247l-.583 1.366c.32.14 2.217.929 4.01.929 1.082 0 2.126-.287 2.763-1.176 2.215-3.085 2.085-5.385 1.948-7.82l-.032-.588c.654-.363 1.793-1.044 2.223-1.601a.749.749 0 0 0 .148-.56"/><ellipse cx="25.871" cy="15" rx="1.145" ry="1.154"/><path d="M24.655 27.902l-.35-1.19-4.178-1.56 2.352 2.488zm5.802-24.09l-.645-.528c-.19-.157-4.77-3.815-13.356-2.813-7.906.922-8.358 8.445-8.347 10.295-1.134.92-3.162 2.716-3.308 3.888-.12.97 1.34 3.885 2.763 6.03 1.518 2.29 3.852 5.088 6.354 5.419l.314.042 2.354-1.93c.33.196.644.338.915.43l.467-1.411c-.025-.008-1.902-.67-2.667-2.764-.258.338-.524.669-.802.991-.086.1-.18.17-.275.224.325.635.73 1.166 1.163 1.596l-1.574 1.291c-3.442-.85-7.447-8.447-7.544-9.751.115-.475 1.52-1.917 3.042-3.118l.31-.246-.03-.396c-.025-.336-.524-8.232 7.034-9.114 6.07-.708 10.006 1.108 11.536 2.014-4.262 3.868-9.195 5.742-9.247 5.762l-.788.295.393.75c1.285 2.452 1.012 5.65.757 7.25-.613-.261-1.337-.42-2.043-.515a25.28 25.28 0 0 1-.835 1.398c1.2.098 2.392.35 2.874.836l.911.918.325-1.256c.053-.206 1.206-4.791-.34-8.585 1.7-.733 5.997-2.808 9.693-6.42l.596-.582z"/><path d="M13.625 22.364s3.335-2.975 4.376-6.64c0 0-4.649 6.095-7.29 6.64l.898 1.536s1.417-.857 2.016-1.536m30.461 36.302c.988.735 2.311 2.218 2.567 4.977.944-.403 2.425-1.196 3.378-2.488-.122-1.318.189-3.37 1.837-4.515-1.729-.521-4.724-.772-7.782 2.026zm1.13 7.003l.006-.984c.028-4.173-2.626-5.204-2.739-5.246l.196-.559-.465-.433c5.726-6.252 11.873-2.463 11.934-2.424l1.563.992-1.811.366c-1.206.243-1.944.925-2.256 2.084-.243.905-.119 1.758-.118 1.766l.046.287-.16.242c-1.745 2.638-5.112 3.606-5.255 3.646l-.941.263z"/><path d="M19.074 61.094a33.816 33.816 0 0 0-.146-.5l-.028-.093c-1.803-5.944-5.447-12.103-5.447-12.103s3.14 9.093 4.713 14.437l.548-.132c.144-.035 14.435-3.468 24.175-3.284l.027-1.486c-8.67-.153-20.815 2.47-23.842 3.16"/><path d="M19.574 62.01s-2.582-8.988-6.121-13.613c0 0 2.065 5.263 3.06 8.125a102.552 102.552 0 0 1 1.807 5.835l1.254-.347zm44.391 93.135C45.438 125.622 37.56 90.354 37.487 90.037c0 0 2.357 16.112 8.344 32.166a227.463 227.463 0 0 0 7.845 17.575 96.745 96.745 0 0 1 1.446 2.842 188.401 188.401 0 0 0 7.358 12.938l-2.47 4.28-1.705-1.594c-15.16-13.891-24.446-32.325-29.567-45.343-5.559-14.132-7.547-25.114-7.566-25.223l-1.452.262c.02.11 2.027 11.211 7.634 25.475 5.179 13.175 14.58 31.837 29.953 45.924l3.05 2.852 3.847-6.664-.239-.382z"/><path d="M68.03 160.185l-5.237-3.94.882-1.19 5.237 3.94z"/></g></g></svg>
