<svg width="128" height="194" xmlns="http://www.w3.org/2000/svg" xmlns:xlink="http://www.w3.org/1999/xlink"><defs><path id="a" d="M14.608.332v12.726H.228V.332h14.38z"/></defs><g fill="none" fill-rule="evenodd"><ellipse fill="#ECEFF1" style="mix-blend-mode:multiply" cx="79.185" cy="188.394" rx="48.815" ry="5.604"/><path fill="#FFF" d="M76.564 102.374l-5.294 1.736-6.516 2.169-6.924.433-5.701-.867-8.96-3.037 1.222 2.17-1.222 72.008v1.735l1.63.868 7.33-.868 7.738-62.032 3.665.868 17.105 62.466 2.85.434 5.702-1.302-.814-3.036-11.404-71.576zm-21.584 78.95l6.516 4.338 3.258 2.603h-4.48l-19.141.434-.407-3.037 1.221-4.338 3.258-1.301h6.924zm23.62 6.941l.408-3.904 1.629-3.47 6.516-.868 3.258-.434 7.738 3.47 5.294 5.206-3.665.434-18.734-.434z"/><path d="M75.342 102.374l2.851-.433 2.037-2.17-4.073-16.917-2.036-5.206-1.222-3.904 2.036-2.602 1.63-3.47-4.073-3.471-2.851.867-2.444-.433-2.443-2.603-2.036-5.206V50.32l1.221-5.64 2.444-4.771-2.444-.434-5.701-1.301h-4.48l-4.073 1.3-1.221 3.037-3.666 9.11-.407 6.073 1.222 7.374.407 10.845-1.629 10.411-3.258 10.845-1.222 3.036 4.073 3.037 9.774 3.037 9.774.433 8.552-2.602 3.258-1.736z" fill="#72A6E6"/><path d="M49.685 39.909c-2.443.578-3.665 1.012-3.665 1.301 0 .29-1.358 1.88-4.073 4.772l-7.33 9.543-6.924-2.169-8.145-4.338-4.887-3.47-2.443-3.47-4.073 1.735-2.443-1.735-2.851-1.302-1.63.434.408 1.735 3.665 7.375 2.444 3.036 1.629.868 4.072-.434 4.073 3.036 6.109 3.47 9.367 3.471 4.887 1.735 6.923-3.904v-2.603l-.407-4.771 2.85-8.676 2.444-5.64zm17.512 0l5.295 4.338 5.294 6.506 6.516 8.242 7.738-2.169 10.996-2.602 1.629-3.47 1.222-2.17 2.85 2.603h6.517l2.443-.867v2.169l-1.629 5.205-2.036 3.037-2.851.433-6.516.434-19.956 9.544-3.258-.868-5.294-3.037-3.665-2.602-1.63.433-2.443.434-2.443-1.301-2.851-4.772-1.222-6.94 2.036-9.11 2.444-3.037zM62.31 29.498l6.11.867 3.257-1.301.815-2.603-.815-5.205 2.036-3.037-1.221-.434-3.258-3.036-1.63-4.338-2.85-.868-5.295-.433v2.169l.408 2.602-1.222 3.47-1.222 2.603-2.443 1.302-2.851.867.814 1.735 1.63 2.17 2.85.867 2.851.868z" fill="#FFF"/><path fill="#9BABB5" d="M59.052 9.11l4.48.433 6.923 1.302 1.63-1.302-.815-4.338-2.444-2.602-2.85-.868h-3.258l-4.073 1.302-4.887.433-4.48 1.735-3.258 3.037-2.444 3.037-.407 3.904.407 2.602 1.222 3.904 2.037 3.905.407 3.036-1.222 5.206 2.036 1.735 4.48-.434 3.665.434 5.295-1.302 2.036-1.735-1.629-3.47-2.444-2.169-3.665-.434-2.85-2.169-.408-2.603 3.258-.867 3.665-3.904.408-4.772z"/><path d="M49.252 180.046c.812 0 1.715-.03 2.72-.096l.709-.046 7.717-63.668-1.686-.211-7.551 62.161c-4.795.242-6.741-.445-7.384-.776l1.33-74.117-1.698-.041-1.349 74.98.227.268c.244.286 1.621 1.546 6.965 1.546m54.082-126.541c-10.662 1.831-16.976 4.029-18.876 4.749-1.92-2.666-10.3-14.22-13.29-17.006-3.554-3.312-7.922-2.858-8.107-2.821l.163.944c.519.112.893.43 1.127.841 1.31.09 3.694.528 5.7 2.398 3.184 2.968 13.336 17.129 13.438 17.271l.389.543.596-.249c.066-.027 6.656-2.741 19.13-4.884l-.27-1.786zM50.14 38.33c-1.811.449-4.753 1.7-7.287 5.187-3.084 4.243-7.407 9.583-8.686 11.153-2.566-.924-13.737-5.116-17.932-9.445l-1.181 1.3c5.013 5.172 18.548 9.858 19.122 10.055l.531.182.368-.447c.054-.067 5.45-6.642 9.12-11.691 2.457-3.38 5.329-4.348 6.752-4.624a81.888 81.888 0 0 0-.808-1.67m51.802 149.215c-1.125-.94-2.849-2.242-4.822-3.508-3.714-2.386-6.655-3.586-8.067-3.288-4.174.874-7.227 1.063-8.107 1.102-.331.313-1.358 1.62-1.3 5.741 2.842-.019 10.867-.068 16.955-.068 2.113 0 3.993.006 5.341.021zm-23.965 1.003c-.328-6.99 2.086-8.298 2.362-8.424l.152-.069.164-.004c.033 0 3.351-.089 8.07-1.077 4.37-.912 14.989 7.36 15.942 8.794.367.553.192 1 .1 1.167a.907.907 0 0 1-.928.466c-.981-.116-15.493-.06-25.008.006l-.813.005-.04-.864z" fill="#5F686D"/><path d="M62.9 187.544c-3.05-2.39-8.864-6.782-11.773-6.782-.043 0-.086.001-.127.003-3.487.165-6.978.848-7.866 1.03-.302.348-1.267 1.767-1.376 5.797 2.874-.02 10.856-.068 16.917-.068 2.063 0 2.885.006 4.226.02zm-22.85.963c-.032-6.628 2.017-8.168 2.251-8.322l.128-.083.146-.032c.17-.038 4.192-.915 8.35-1.112 4.384-.215 14.137 7.565 14.885 8.97.185.347.18.739-.01 1.048a.914.914 0 0 1-.907.425c-.98-.116-14.473-.06-23.988.005l-.851.007-.004-.906zM37.68 66.4l8.324-3.955-.692-1.652-7.769 3.691c-2.088-.63-15.081-4.724-24.002-11.573l-.993 1.468c9.933 7.626 24.238 11.765 24.842 11.938l.29.082z" fill="#5F686D"/><g transform="translate(104.27 49.403)"><mask id="b" fill="#fff"><use xlink:href="#a"/></mask><path d="M3.014 13.058c1.682 0 4.065-.214 6.986-1.044l.271-.077.175-.234c.176-.236 4.319-5.853 4.157-11.371l-1.697.056c.125 4.282-2.877 8.882-3.624 9.956-5.31 1.451-8.656.713-8.69.705l-.365 1.766c.079.02 1.066.243 2.787.243" fill="#5F686D" mask="url(#b)"/></g><path d="M103.63 55.24c.165-1.134.914-4.306 2.277-5.415l2.43 2.353 10.486-.672-.102-1.806-9.771.627-2.75-2.663-.495.214c-2.83 1.225-3.668 6.489-3.754 7.085l1.678.276zm1.403 5.25l.625 1.681-21.08 10.184-.267-.074c-.377-.104-9.3-2.639-14.656-10.86 9.203 8.01 14.825 9.03 14.825 9.03l20.553-9.961zM81.36 179.534c2.735.546 5.44-.394 6.582-.877l-12.42-75.683 1.676-.295 12.63 77.037-.56.298c-.143.076-2.858 1.497-6.155 1.497a10.27 10.27 0 0 1-2.646-.334l-.485-.13-17.448-63.16-6.871-2.126 8.235.562 17.461 63.21zm-38.443-1.641l-.17 3.062 4.895-.805zM.851 39.99c2.72-.908 5.787 1.336 7.261 2.414.131.095.28.205.399.288l4.2-1.426.367.466c1.85 2.357 4.64 4.773 4.663 4.797l-1.15 1.33c-.097-.094-2.594-2.223-4.445-4.502l-3.441 1.167c-.473.162-.79-.07-1.554-.629-1.075-.785-3.144-2.293-4.929-2.305 1.042 3.887 5.172 10.753 6.32 11.202 1.606.056 5.22-.164 5.257-.167l.099 1.807c-.155.009-3.79.23-5.455.166a.988.988 0 0 1-.056-.003C5.82 54.35.919 44.214.388 41.194c-.243-.968.463-1.204.463-1.204m67.602-8.842h-.042c-3.503-.022-6.434-1.04-6.557-1.083l.532-1.718c.027.01 2.81.972 6.035.992h.032c2.27 0 2.958-1.534 3.116-2.006l-.86-6.044a.93.93 0 0 1 .353-.876c.84-.627 1.413-1.203 1.791-1.655-4.415-1.322-5.829-6.278-5.943-8.935l1.697-.082-.848.041.848-.043c.013.28.38 6.88 5.782 7.496.265.03.502.192.638.437a.958.958 0 0 1 .056.806c-.059.154-.61 1.472-2.617 3.084l.81 5.7a.961.961 0 0 1-.011.335c-.263 1.232-1.606 3.551-4.812 3.551" fill="#5F686D"/><path d="M46.845 33.58c1.815-4.454.959-8.839.92-9.03l-.046-.226-.15-.167c-.017-.019-1.76-1.992-2.836-4.8-1.395-3.64-1.063-6.929.987-9.777 5.03-6.99 12.566-5.627 12.884-5.566l.234.045.219-.103c6.474-3.092 9.48-.867 10.697.734 1.437 1.894 1.503 4.34.917 5.192-.147.213-.365.403-.876.19-4.539-1.895-10.352-1.842-10.597-1.838l-1.077.013.362 1.081c.019.057 1.895 5.854-1.205 9.259-.619.68-1.174 1.172-1.666 1.529 0 0-.207.202-.675.43-.523.286-.95.402-1.279.436a9.223 9.223 0 0 1-2.038.209l.037.42c.267 4.813 4.042 6.153 6 6.19h.043c1.682-.07 3.039.71 4.032 2.312.495.798.776 1.603.917 2.087-5.282 4.64-9.801 1.52-9.848 1.488l-.46-.328-.438.362c-2.244 1.85-4.25.554-5.058-.143zm-1.86.348l.365.413c1.15 1.303 4.022 3.087 7.01 1.041a4.98 4.98 0 0 0 .063-.043c.6.326 1.73.832 3.215.997 1.656.185 4.035-.038 6.646-1.825a14.55 14.55 0 0 0 1.742-1.41l.334-.314-.09-.464c-.424-2.203-2.349-6.317-6.601-6.16-.312-.014-3.531-.223-4.316-3.515 1.096.034 2.808-.481 5.03-2.92 2.886-3.17 2.315-7.742 1.848-9.836 1.838.071 5.825.379 9.003 1.706 1.053.44 2.055.161 2.678-.748 1.279-1.86.535-5.219-.962-7.19-3.516-4.63-9.627-2.541-12.311-1.299-1.472-.22-8.984-.942-14.14 6.222-5.256 7.302.715 15.194 1.796 16.514.14.905.584 4.711-1.075 8.322l-.234.51zm14.706 73.66c-7.1 0-14.25-2.233-20.349-6.633l-.553-.4.235-.666c.513-1.457 1.032-2.84 1.535-4.179.5-1.33 1.016-2.704 1.522-4.142 2.736-8.746 3.657-19.34 2.452-28.31l1.681-.256c1.24 9.234.294 20.138-2.533 29.17a207.878 207.878 0 0 1-1.545 4.21c-.421 1.12-.854 2.274-1.283 3.47 10.405 7.195 23.853 7.907 34.476 1.781.527-.467 1.258-.517 1.706-.521.653-.254 1.35-.695 1.918-1.208-.48-2.093-.912-4.248-1.33-6.338-1.297-6.482-2.639-13.185-5.603-18.975l-.246-.48.285-.454c.43-.687.937-1.288 1.428-1.87 1.093-1.294 2.037-2.412 1.857-4.109l1.687-.203c.266 2.506-1.087 4.108-2.281 5.522-.352.416-.689.816-.987 1.23 2.907 5.898 4.235 12.537 5.521 18.962.45 2.249.915 4.573 1.438 6.798l.116.497-.34.362c-.833.887-1.973 1.645-3.049 2.028l-.13.046h-.138c-.52 0-.705.057-.767.105l-.087.092-.098.054c-5.088 2.956-10.797 4.417-16.538 4.417" fill="#5F686D"/><path d="M69.118 66.324a5.09 5.09 0 0 1-1.843-.34c-2.329-.897-4.023-3.488-5.036-7.7-2.829-11.76 3.493-18.665 3.764-18.954l1.2 1.28-.6-.64.602.638c-.015.016-1.504 1.637-2.649 4.562-1.528 3.905-1.754 8.166-.672 12.664.863 3.59 2.195 5.759 3.958 6.445 2.104.819 4.248-.781 4.27-.798l.992 1.468c-.09.07-1.816 1.375-3.986 1.375M52.112 39.317l-.68-4.962 1.68-.261.68 4.962zm11.237.739c-2.183-2.206-2.392-3.465-2.683-5.209l-.087-.514 1.669-.334.09.532c.26 1.559.403 2.417 2.18 4.213l-1.169 1.312z" fill="#5F686D"/><path d="M44.682 63.654c-1.746-4.84-1.452-10.706.852-16.968 1.72-4.678 3.923-7.9 4.016-8.035l.126-.182.191-.098c.199-.102 4.975-2.456 14.949.15l-.405 1.758c-8.246-2.156-12.689-.725-13.625-.355-1.073 1.657-8.112 13.122-4.519 23.081l-1.585.65z" fill="#5F686D"/></g></svg>
